<svg xmlns="http://www.w3.org/2000/svg" viewBox="0 0 301.69 36.79"><defs><style>.cls-1{fill:#fff;}</style></defs><g id="Réteg_2" data-name="Réteg 2"><g id="Réteg_1" data-name="Réteg 1"><path class="cls-1" d="M33.41,14a11.66,11.66,0,0,0-5.58-5.4,21.73,21.73,0,0,0-9.41-1.79A24,24,0,0,0,8.75,8.55a14.52,14.52,0,0,0-6.44,5.17A14,14,0,0,0,0,21.83a13.66,13.66,0,0,0,2.37,8.09A14.84,14.84,0,0,0,9,35a25.05,25.05,0,0,0,9.7,1.76A23.15,23.15,0,0,0,27,35.46a13.45,13.45,0,0,0,5.4-3.64,10.4,10.4,0,0,0,2.38-4.91H27.4a6.08,6.08,0,0,1-2.95,2.86,12.85,12.85,0,0,1-6,1.24,13.56,13.56,0,0,1-5.58-1,9.15,9.15,0,0,1-3.69-2.83,8.29,8.29,0,0,1-1.65-4H34.94A18.32,18.32,0,0,0,33.41,14ZM8,18.77a8.12,8.12,0,0,1,3.35-4.48,11.53,11.53,0,0,1,6.75-1.82,11.48,11.48,0,0,1,6.67,1.71,6.1,6.1,0,0,1,2.75,4.59Z"/><polygon class="cls-1" points="59.26 7.39 68.38 7.39 62.11 14.12 55.49 21.23 69.19 36.09 60.01 36.09 51.16 26.14 42.74 36.09 33.56 36.09 46.98 21.57 33.56 7.39 42.74 7.39 51.31 16.69 59.26 7.39"/><rect class="cls-1" x="96.64" y="17.77" width="7.51" height="18.37"/><path class="cls-1" d="M165.4,20.33V36.08h-7.51V14.88a7.51,7.51,0,0,1,7.51-7.51h0v8.69s2.17-8.69,11-8.69V14S168.61,13.91,165.4,20.33Z"/><path class="cls-1" d="M234.87,9.57a10.86,10.86,0,0,0-3.93-2.14A16.7,16.7,0,0,0,226,6.74a14.89,14.89,0,0,0-5.34.92,14.11,14.11,0,0,0-4.18,2.48,13.46,13.46,0,0,0-2.89,3.47A12.87,12.87,0,0,0,213,14.9a10.51,10.51,0,0,0-.52-1.67,9.5,9.5,0,0,0-2.6-3.66,10.74,10.74,0,0,0-3.92-2.14A16.7,16.7,0,0,0,201,6.74a15.49,15.49,0,0,0-5.49.92,13.42,13.42,0,0,0-4.18,2.51,13.12,13.12,0,0,0-2.8,3.5,11.47,11.47,0,0,0-.87,2V7.37h-7.51v28.7h7.51v-17A7.57,7.57,0,0,1,189,16.87,11.71,11.71,0,0,1,192.94,14a12.49,12.49,0,0,1,5.43-1.16c2.66,0,4.57.57,5.75,1.7s1.76,2.92,1.76,5.35V36.07h7.51V18.52c0-.26,0-.51,0-.76a8.5,8.5,0,0,1,.66-.89A11.66,11.66,0,0,1,218,14a12.49,12.49,0,0,1,5.43-1.16c2.65,0,4.58.57,5.77,1.7s1.79,2.92,1.79,5.35V36.07h7.51V18.52a13.51,13.51,0,0,0-.95-5.29A9.89,9.89,0,0,0,234.87,9.57Z"/><path class="cls-1" d="M283.15,9.57a10.72,10.72,0,0,0-3.93-2.14,16.7,16.7,0,0,0-4.91-.69,15.18,15.18,0,0,0-5.48.92,13.17,13.17,0,0,0-4.19,2.51,13.32,13.32,0,0,0-2.8,3.5,12.29,12.29,0,0,0-.87,2V7.37h-7.5v28.7H261v-17a8,8,0,0,1,1.33-2.18A11.81,11.81,0,0,1,266.23,14a12.6,12.6,0,0,1,5.43-1.15c2.65,0,4.57.57,5.74,1.7s1.76,2.92,1.76,5.35V36.07h7.51V18.52a13.9,13.9,0,0,0-.92-5.29A9.61,9.61,0,0,0,283.15,9.57Z"/><rect class="cls-1" x="290.43" y="17.71" width="7.51" height="18.37"/><path class="cls-1" d="M79.77,28,70.94,7.37H62.68L76.2,36.07h7.1l5.57-11.58,4-8.36V7.37h0A6.13,6.13,0,0,0,87.28,11Z"/><path class="cls-1" d="M152.57,13.93A11.64,11.64,0,0,0,147,8.53a21.77,21.77,0,0,0-9.42-1.79,24,24,0,0,0-9.67,1.79,14.57,14.57,0,0,0-6.44,5.17,14,14,0,0,0-2.31,8.11,13.66,13.66,0,0,0,2.37,8.09A14.89,14.89,0,0,0,128.11,35a25.09,25.09,0,0,0,9.7,1.76,23.07,23.07,0,0,0,8.32-1.33,13.45,13.45,0,0,0,5.4-3.64,10.22,10.22,0,0,0,2.38-4.91h-7.34a6.08,6.08,0,0,1-2.95,2.86,12.89,12.89,0,0,1-6,1.24,13.54,13.54,0,0,1-5.57-1,9.18,9.18,0,0,1-3.7-2.83,8.28,8.28,0,0,1-1.64-4H154.1A18.32,18.32,0,0,0,152.57,13.93Zm-25.44,4.82a8.17,8.17,0,0,1,3.35-4.48,13.66,13.66,0,0,1,13.43-.11,6.09,6.09,0,0,1,2.74,4.59Z"/><rect class="cls-1" x="107.89" width="7.51" height="36.09"/><rect class="cls-1" x="107.89" y="7.39" width="16.39" height="6.58"/><path class="cls-1" d="M253.47,7.37h-4.68A6.59,6.59,0,0,0,242.2,14h11.27Z"/><rect class="cls-1" x="242.2" y="17.71" width="7.51" height="18.36"/><rect class="cls-1" x="176.43" y="7.37" width="11.26" height="6.58"/><path class="cls-1" d="M301.69,7.37H297A6.58,6.58,0,0,0,290.43,14h11.26Z"/><path class="cls-1" d="M104.13,7.37H99.45A6.58,6.58,0,0,0,92.87,14h11.26Z"/><path class="cls-1" d="M92.89,16.13A3.76,3.76,0,0,1,96.64,14c2.35,0,5-6.57,5-6.57l-8.78,0"/></g></g></svg>